# xmcd
#
# Track frame offsets:
#	150
#	14787
#	30587
#	44976
#	59758
#	72776
#	87878
#	101010
#	115074
#	128890
#	143123
#	157431
#	170538
#	184837
#	198778
#	215411
#	230625
#	246324
#	262402
#	277646
#	295723
#
# Disc length: 4168 seconds
#
# Revision: 0
# Processed by: cddbd v1.5.2PL0 Copyright (c) Steve Scherf et al.
# Submitted via: EZCDAudioConverter 4.0.5.1
#
DISCID=4b104615
DTITLE=Various Artist - MULTI MUSIC HOTT COUNTRY # 287
DYEAR=2020
DGENRE=COUNTRY
TTITLE0=Blake Shelton duet with Gwen Stefani - Nobody But You
TTITLE1=Miranda Lambert - Bluebird
TTITLE2=Brad Paisley ft. Addie Pratt - Alive Right Now
TTITLE3=Chad Brownlee - Money On You
TTITLE4=Hardy ft. Lauren Alaina and Devin Dawson - One Beer
TTITLE5=Tyler Joe Miller - Pillow Talkin'
TTITLE6=Aaron Goodvin - Good Ol' Bad Days
TTITLE7=Wes Mack - Just Getting Warmed Up
TTITLE8=Adam Doleac - Famous
TTITLE9=Brandon Lay - For My Money
TTITLE10=The Washboard Union - Country Thunder
TTITLE11=Grace Asbury - Pour Me
TTITLE12=Black Mountain Whiskey Rebellion - Stillhouse Blues
TTITLE13=Corey Farlow - We're Hooked
TTITLE14=Past The Perimeter - Catch A Little Buzz
TTITLE15=Paige King Johnson - Water Down The Whiskey
TTITLE16=Don Amero - Morning Coffee
TTITLE17=The Ashley Sisters - Crush
TTITLE18=Jagertown - Falling On The Blacktop
TTITLE19=Presley and Taylor - Where You Belong
TTITLE20=AJ Sanders - Chevy And Daddy
EXTD=
EXTT0=
EXTT1=
EXTT2=
EXTT3=
EXTT4=
EXTT5=
EXTT6=
EXTT7=
EXTT8=
EXTT9=
EXTT10=
EXTT11=
EXTT12=
EXTT13=
EXTT14=
EXTT15=
EXTT16=
EXTT17=
EXTT18=
EXTT19=
EXTT20=
PLAYORDER=
